<svg width="8" height="10" viewBox="0 0 8 10" fill="none" xmlns="http://www.w3.org/2000/svg">
<path d="M1.03035 4.15164H6.96966C7.08457 4.15164 7.18403 4.10969 7.26796 4.02571C7.35184 3.94176 7.39396 3.84234 7.39396 3.72744C7.39396 3.61253 7.35187 3.51316 7.26796 3.42909L4.29829 0.459427C4.21439 0.375566 4.11499 0.333496 4.00002 0.333496C3.88505 0.333496 3.78565 0.375566 3.70168 0.459427L0.73201 3.42909C0.648033 3.51307 0.606079 3.61253 0.606079 3.72744C0.606079 3.84232 0.648033 3.94176 0.73201 4.02571C0.81608 4.10969 0.915474 4.15164 1.03035 4.15164Z" fill="#56666D"/>
<path d="M6.96966 5.84863H1.03035C0.915381 5.84863 0.815987 5.89061 0.73201 5.97449C0.648033 6.05847 0.606079 6.15787 0.606079 6.27277C0.606079 6.38767 0.648033 6.48713 0.73201 6.57107L3.70168 9.54068C3.78575 9.62466 3.88514 9.66671 4.00002 9.66671C4.1149 9.66671 4.21439 9.62466 4.29829 9.54068L7.26796 6.57104C7.35184 6.48713 7.39396 6.38767 7.39396 6.27274C7.39396 6.15787 7.35187 6.05847 7.26796 5.97447C7.18405 5.89052 7.08456 5.84863 6.96966 5.84863Z" fill="#56666D"/>
</svg>
