<svg width="13" height="8" viewBox="0 0 13 8" fill="none" xmlns="http://www.w3.org/2000/svg">
<path d="M12.7922 0.66863L12.3664 0.221886C12.2324 0.0823677 12.0541 0.00550598 11.8635 0.00550598C11.673 0.00550598 11.4945 0.0823677 11.3605 0.221886L6.50291 5.28308L1.6397 0.21627C1.5059 0.0767516 1.32738 0 1.13693 0C0.946471 0 0.767852 0.0767516 0.63394 0.21627L0.208002 0.660262C-0.0693339 0.948988 -0.0693339 1.4193 0.208002 1.70802L5.99823 7.76237C6.13203 7.90177 6.31034 8 6.50248 8H6.5047C6.69527 8 6.87357 7.90166 7.00737 7.76237L12.7922 1.72443C12.9262 1.58502 12.9998 1.39364 13 1.19521C13 0.996669 12.9262 0.807928 12.7922 0.66863Z" fill="#56666D"/>
</svg>
