<svg width="20" height="31" viewBox="0 0 20 31" fill="none" xmlns="http://www.w3.org/2000/svg">
<path d="M7.46969 19.9334C7.95455 19.4517 8.39225 19.016 8.79473 18.6076C6.48103 16.0574 5.60547 14.0586 5.60547 9.34766C5.60547 6.39594 6.37621 3.58133 7.66797 1.91791L8.7683 0.5H6.97357C2.41 0.5 0.332031 6.48178 0.332031 11.9844C0.332676 17.6667 2.20551 21.9661 3.96473 24.9285C4.20057 23.7046 4.79846 22.5828 5.71451 21.6929C6.31615 21.0809 6.91439 20.4853 7.46969 19.9334Z" fill="#7084CB"/>
<path d="M13.0264 0.5H11.2316L12.332 1.91791C13.6238 3.58133 14.3945 6.39594 14.3945 9.34766C14.3945 15.4717 12.962 16.9534 8.70912 21.1805C8.15811 21.7281 7.56414 22.3186 6.9393 22.9538C6.07926 23.7889 5.60547 24.9081 5.60547 26.1055C5.60547 28.5285 7.57697 30.5 10 30.5C11.4746 30.5 12.8436 29.7662 13.6615 28.5371C13.8152 28.3062 13.9946 28.0478 14.1928 27.762C16.106 25.0068 19.6671 19.819 19.668 11.9844C19.668 6.48178 17.59 0.5 13.0264 0.5ZM10 27.3483L8.75717 26.1055L10 24.8626L11.2428 26.1055L10 27.3483Z" fill="#7084CB"/>
</svg>
