<svg width="10" height="15" viewBox="0 0 10 15" fill="none" xmlns="http://www.w3.org/2000/svg">
<path d="M9.5982 6.63345L3.32122 0.365813C3.09006 0.121904 2.8014 0 2.45468 0C2.10795 0 1.81929 0.122039 1.58813 0.365813L0.856438 1.088C0.618903 1.3255 0.500135 1.61419 0.500135 1.95437C0.500135 2.28812 0.618869 2.58025 0.856438 2.83049L5.53542 7.50003L0.856236 12.1792C0.618768 12.4167 0.5 12.7054 0.5 13.0456C0.5 13.3793 0.618734 13.6715 0.856236 13.9217L1.588 14.6438C1.8255 14.8813 2.11446 15 2.45454 15C2.79476 15 3.08365 14.8813 3.32109 14.6438L9.5982 8.37612C9.83581 8.12581 9.95468 7.83374 9.95468 7.5C9.95471 7.15982 9.83581 6.87096 9.5982 6.63345Z" fill="#56666D"/>
</svg>
