<svg width="9" height="13" viewBox="0 0 9 13" fill="none" xmlns="http://www.w3.org/2000/svg">
<path d="M4.51823 6.42054L8.41982 2.51879C8.61806 2.32074 8.71696 2.07852 8.71696 1.79215C8.71696 1.50581 8.61803 1.2637 8.41982 1.06568L7.81781 0.463474C7.61987 0.265513 7.37762 0.166504 7.09137 0.166504C6.80511 0.166504 6.56297 0.265513 6.36473 0.463474L1.13036 5.68988C0.932289 5.88793 0.833252 6.13012 0.833252 6.41652C0.833252 6.70291 0.932261 6.94491 1.13036 7.14304L6.3647 12.3694C6.56294 12.5675 6.80505 12.6665 7.09134 12.6665C7.37762 12.6665 7.61984 12.5675 7.81778 12.3694L8.41979 11.7674C8.61803 11.5694 8.71693 11.3286 8.71693 11.0448C8.71693 10.7612 8.618 10.5176 8.41979 10.3143L4.51823 6.42054Z" fill="#0011EE"/>
</svg>
