<svg width="9" height="13" viewBox="0 0 9 13" fill="none" xmlns="http://www.w3.org/2000/svg">
<path d="M8.41509 5.69438L3.18427 0.471348C2.99163 0.26809 2.75109 0.166504 2.46215 0.166504C2.17321 0.166504 1.93266 0.268203 1.74003 0.471348L1.13028 1.07317C0.932337 1.27108 0.833364 1.51166 0.833364 1.79515C0.833364 2.07327 0.932309 2.31671 1.13028 2.52525L5.02943 6.41653L1.13012 10.3158C0.932225 10.5137 0.833252 10.7543 0.833252 11.0378C0.833252 11.3159 0.932197 11.5594 1.13012 11.7679L1.73991 12.3696C1.93783 12.5676 2.17863 12.6665 2.46204 12.6665C2.74555 12.6665 2.9863 12.5676 3.18416 12.3696L8.41509 7.14661C8.61309 6.93801 8.71215 6.69462 8.71215 6.4165C8.71218 6.13302 8.61309 5.8923 8.41509 5.69438Z" fill="#0011EE"/>
</svg>
