<svg width="10" height="15" viewBox="0 0 10 15" fill="none" xmlns="http://www.w3.org/2000/svg">
<path d="M4.92198 7.50484L9.60388 2.82274C9.84177 2.58508 9.96044 2.29442 9.96044 1.95077C9.96044 1.60717 9.84173 1.31663 9.60388 1.07901L8.88146 0.356364C8.64394 0.118811 8.35324 0 8.00973 0C7.66623 0 7.37566 0.118811 7.13777 0.356364L0.856533 6.62805C0.618844 6.86571 0.5 7.15634 0.5 7.50002C0.5 7.84369 0.618811 8.13409 0.856533 8.37185L7.13774 14.6435C7.37563 14.8812 7.66616 15 8.0097 15C8.35324 15 8.64391 14.8812 8.88143 14.6435L9.60384 13.921C9.84173 13.6835 9.96041 13.3945 9.96041 13.0539C9.96041 12.7136 9.8417 12.4214 9.60384 12.1773L4.92198 7.50484Z" fill="#56666D"/>
</svg>
