<svg width="10" height="15" viewBox="0 0 10 15" fill="none" xmlns="http://www.w3.org/2000/svg">
<path d="M4.42198 7.50484L9.10388 2.82274C9.34177 2.58508 9.46044 2.29442 9.46044 1.95077C9.46044 1.60717 9.34173 1.31663 9.10388 1.07901L8.38146 0.356364C8.14394 0.118811 7.85324 0 7.50973 0C7.16623 0 6.87566 0.118811 6.63777 0.356364L0.356533 6.62805C0.118844 6.86571 0 7.15634 0 7.50002C0 7.84369 0.118811 8.13409 0.356533 8.37185L6.63774 14.6435C6.87563 14.8812 7.16616 15 7.5097 15C7.85324 15 8.14391 14.8812 8.38143 14.6435L9.10384 13.921C9.34173 13.6835 9.46041 13.3945 9.46041 13.0539C9.46041 12.7136 9.3417 12.4214 9.10384 12.1773L4.42198 7.50484Z" fill="white"/>
</svg>
