<svg width="10" height="15" viewBox="0 0 10 15" fill="none" xmlns="http://www.w3.org/2000/svg">
<path d="M9.0982 6.63345L2.82122 0.365813C2.59006 0.121904 2.3014 0 1.95468 0C1.60795 0 1.31929 0.122039 1.08813 0.365813L0.356438 1.088C0.118903 1.3255 0.000134813 1.61419 0.000134813 1.95437C0.000134813 2.28812 0.118869 2.58025 0.356438 2.83049L5.03542 7.50003L0.356236 12.1792C0.118768 12.4167 0 12.7054 0 13.0456C0 13.3793 0.118734 13.6715 0.356236 13.9217L1.088 14.6438C1.3255 14.8813 1.61446 15 1.95454 15C2.29476 15 2.58365 14.8813 2.82109 14.6438L9.0982 8.37612C9.33581 8.12581 9.45468 7.83374 9.45468 7.5C9.45471 7.15982 9.33581 6.87096 9.0982 6.63345Z" fill="white"/>
</svg>
