<svg width="50" height="30" viewBox="0 0 50 30" fill="none" xmlns="http://www.w3.org/2000/svg">
<path d="M46.804 14.0258C46.6471 13.9928 46.4989 13.9618 46.3671 13.9275C44.873 13.539 44.1911 13.326 43.6869 12.3525L41.777 8.48591C41.1632 7.30099 39.5783 6.33693 38.244 6.33693H34.8439V1.87195C34.8439 1.07026 34.1916 0.417969 33.3897 0.417969L9.70754 0.441751C8.92725 0.441751 8.33885 1.06183 8.33885 1.88417V3.20389H2.27211C1.0193 3.204 0 4.22319 0 5.47611C0 6.72902 1.0193 7.74821 2.27211 7.74821H8.33874V9.92595H4.36671C3.11391 9.92595 2.0946 10.9453 2.0946 12.1981C2.0946 13.4509 3.11391 14.4702 4.36671 14.4702H8.33874V16.6479H6.46131C5.20851 16.6479 4.18921 17.6672 4.18921 18.92C4.18921 20.1728 5.20851 21.1921 6.46131 21.1921H8.33874V23.4698C8.33874 24.2715 8.99103 24.9238 9.79272 24.9238H12.2562C12.6398 27.5532 14.9092 29.5792 17.6437 29.5792C20.3784 29.5792 22.6479 27.5532 23.0317 24.9238H33.0014C33.0531 24.9238 33.1062 24.9204 33.1592 24.9169C33.5399 27.5497 35.8107 29.5792 38.5476 29.5792C41.2822 29.5792 43.5518 27.5532 43.9355 24.9238H47.474C48.8669 24.9238 50.0001 23.7907 50.0001 22.3979V18.1118C50 14.6963 48.0766 14.2928 46.804 14.0258ZM38.5476 22.1549C39.6394 22.1549 40.5277 23.0428 40.5277 24.1344C40.5277 25.2259 39.6394 26.1138 38.5476 26.1138C37.4562 26.1138 36.5682 25.2259 36.5682 24.1344C36.5682 23.0428 37.4562 22.1549 38.5476 22.1549ZM34.8439 13.7179V8.44569H37.4422C38.4409 8.44569 39.6728 9.19506 40.1301 10.0774L41.8296 13.5182C41.8656 13.5878 41.903 13.6542 41.9418 13.7178H34.8439V13.7179ZM19.6238 24.1342C19.6238 25.2257 18.7355 26.1137 17.6437 26.1137C16.5523 26.1137 15.6644 25.2258 15.6644 24.1342C15.6644 23.0427 16.5523 22.1548 17.6437 22.1548C18.7355 22.1549 19.6238 23.0428 19.6238 24.1342Z" fill="#00AA77"/>
</svg>
