<svg width="90" height="90" viewBox="0 0 90 90" fill="none" xmlns="http://www.w3.org/2000/svg">
<path d="M45 0C20.186 0 0 20.186 0 45C0 69.814 20.186 90 45 90C69.814 90 90 69.814 90 45C90 20.186 69.814 0 45 0ZM67.8076 35.4639L43.4324 59.8384C42.7011 60.5697 41.7412 60.9377 40.7812 60.9377C39.8213 60.9377 38.8614 60.5697 38.1301 59.8384L25.9428 47.6511C24.4762 46.1852 24.4762 43.8148 25.9428 42.3489C27.4088 40.8822 29.7784 40.8822 31.2451 42.3489L40.7812 51.885L62.5053 30.1616C63.9713 28.6949 66.3409 28.6949 67.8076 30.1616C69.2736 31.6276 69.2736 33.9972 67.8076 35.4639Z" fill="#00AA77"/>
</svg>
