<svg width="19" height="25" viewBox="0 0 19 25" fill="none" xmlns="http://www.w3.org/2000/svg">
<path d="M16.8957 2.962H16.3792C16.1766 2.18232 15.4752 1.60337 14.6316 1.60337H12.1729C11.6538 0.653606 10.6568 0 9.5002 0C8.34375 0 7.34649 0.653606 6.82739 1.60337H4.36866C3.5245 1.60337 2.82354 2.18217 2.62063 2.962H2.10457C1.1047 2.962 0.293213 3.77392 0.293213 4.77321V23.1888C0.293213 24.1891 1.1047 25.0001 2.10457 25.0001H16.8957C17.8951 25.0001 18.707 24.1891 18.707 23.1888V4.77321C18.7069 3.77465 17.8967 2.962 16.8957 2.962ZM9.5002 1.81296C10.1865 1.81296 10.7454 2.37143 10.7454 3.05815C10.7454 3.74458 10.1863 4.30349 9.5002 4.30349C8.81377 4.30349 8.25486 3.74458 8.25486 3.05815C8.25472 2.37056 8.81377 1.81296 9.5002 1.81296ZM15.6875 12.6384C15.6627 12.6412 15.638 12.6419 15.6132 12.6419C15.1462 12.6419 14.75 12.2829 14.711 11.8088L14.6606 11.1863L12.5203 14.4249C12.3868 14.6267 12.1781 14.7664 11.9393 14.8142L7.35797 15.7163L4.69721 20.2693C4.52785 20.5577 4.22531 20.7187 3.91492 20.7187C3.75921 20.7187 3.60235 20.6781 3.45855 20.5931C3.02572 20.342 2.88062 19.7857 3.13451 19.355L6.00355 14.4483C6.13485 14.2254 6.35548 14.0679 6.61024 14.0175L11.2193 13.1083L13.2332 10.0636L12.3832 10.1467C11.8931 10.1976 11.4421 9.83053 11.3935 9.3335C11.3448 8.83545 11.7111 8.39245 12.2064 8.34466L15.3002 8.04299C15.5416 8.01554 15.783 8.09339 15.9689 8.24938C16.1545 8.40509 16.2713 8.62876 16.2907 8.87074L16.5172 11.6628C16.5568 12.1616 16.1854 12.5976 15.6875 12.6384Z" fill="white"/>
</svg>
