<svg width="31" height="30" viewBox="0 0 31 30" fill="none" xmlns="http://www.w3.org/2000/svg">
<g clip-path="url(#clip0)">
<path d="M24.6119 6.25H23.3663V3.75C23.3663 3.41848 23.2351 3.10054 23.0015 2.86612C22.7679 2.6317 22.4511 2.5 22.1208 2.5C21.7904 2.5 21.4736 2.6317 21.24 2.86612C21.0065 3.10054 20.8752 3.41848 20.8752 3.75V6.25H10.9108V3.75C10.9108 3.41848 10.7796 3.10054 10.546 2.86612C10.3124 2.6317 9.9956 2.5 9.66526 2.5C9.33492 2.5 9.01811 2.6317 8.78452 2.86612C8.55093 3.10054 8.41971 3.41848 8.41971 3.75V6.25H7.17416C6.18313 6.25 5.2327 6.64509 4.53194 7.34835C3.83118 8.05161 3.4375 9.00544 3.4375 10V11.25H28.3485V10C28.3485 9.00544 27.9549 8.05161 27.2541 7.34835C26.5533 6.64509 25.6029 6.25 24.6119 6.25Z" fill="#fff"/>
<path d="M3.4375 23.75C3.4375 24.7446 3.83118 25.6984 4.53194 26.4016C5.2327 27.1049 6.18313 27.5 7.17416 27.5H24.6119C25.6029 27.5 26.5533 27.1049 27.2541 26.4016C27.9549 25.6984 28.3485 24.7446 28.3485 23.75V13.75H3.4375V23.75Z" fill="#fff"/>
</g>
<defs>
<clipPath id="clip0">
<rect width="29.8932" height="30" fill="white" transform="translate(0.946289)"/>
</clipPath>
</defs>
</svg>
