<svg width="17" height="17" viewBox="0 0 17 17" fill="none" xmlns="http://www.w3.org/2000/svg">
<g clip-path="url(#clip0)">
<path d="M8.50048 11.3327C8.35527 11.3327 8.21644 11.2732 8.11656 11.1683L4.39781 7.27252C4.07552 6.93535 4.31494 6.37435 4.78173 6.37435H6.72965L6.72965 2.30143C6.72965 1.81339 7.12702 1.41602 7.61506 1.41602L9.3859 1.41602C9.87394 1.41602 10.2713 1.81339 10.2713 2.30143V6.37435H12.2192C12.686 6.37435 12.9254 6.93535 12.6031 7.27252L8.8844 11.1683C8.78452 11.2732 8.64569 11.3327 8.50048 11.3327Z" fill="#0011EE"/>
<path d="M15.7604 15.5833L1.23958 15.5833C0.556042 15.5833 0 15.0273 0 14.3437L0 13.9896C0 13.306 0.556042 12.75 1.23958 12.75L15.7604 12.75C16.444 12.75 17 13.306 17 13.9896V14.3437C17 15.0273 16.444 15.5833 15.7604 15.5833Z" fill="#0011EE"/>
</g>
<defs>
<clipPath id="clip0">
<rect width="17" height="17" fill="white"/>
</clipPath>
</defs>
</svg>
