<svg width="18" height="18" viewBox="0 0 18 18" fill="none" xmlns="http://www.w3.org/2000/svg">
<g clip-path="url(#clip0)">
<path d="M0.826931 8.99937L0.0372353 11.0591C-0.0493851 11.2863 0.0181122 11.5439 0.208223 11.6981L1.92036 13.0862L2.26683 15.2652C2.30508 15.5059 2.49407 15.6938 2.7348 15.732L4.91378 16.0785L6.30081 17.7918C6.4538 17.9819 6.71703 18.0494 6.93864 17.9628L8.9995 17.1719L11.0592 17.9616C11.2876 18.0494 11.5429 17.9796 11.6971 17.7906L13.0852 16.0774L15.2642 15.7309C15.5038 15.6927 15.6928 15.5037 15.731 15.2641L16.0775 13.0851L17.7908 11.6969C17.9798 11.5439 18.0484 11.2863 17.9618 11.0591L17.1721 8.99937L17.9618 6.93963C18.0495 6.7124 17.9798 6.45479 17.7908 6.3018L16.0775 4.91477L15.731 2.7358C15.6928 2.49506 15.5049 2.30607 15.2642 2.26783L13.0852 1.92135L11.6971 0.209217C11.5429 0.0179806 11.2853 -0.0495148 11.0581 0.038229L8.9995 0.826799L6.93976 0.0371037C6.87452 0.0123558 6.80702 -1.52588e-05 6.7384 -1.52588e-05C6.57304 -1.52588e-05 6.40992 0.073101 6.30081 0.209217L4.91378 1.92135L2.7348 2.26783C2.49407 2.30607 2.30508 2.49506 2.26683 2.7358L1.92036 4.91477L0.208223 6.3018C0.0181122 6.45592 -0.0493851 6.7124 0.0372353 6.93963L0.826931 8.99937Z" fill="#00AA77"/>
<path d="M10.6872 10.1252C11.6175 10.1252 12.3745 10.8823 12.3745 11.8126C12.3745 12.7429 11.6175 13.5 10.6872 13.5C9.75685 13.5 8.99977 12.7429 8.99977 11.8126C8.99977 10.8823 9.75685 10.1252 10.6872 10.1252ZM10.6872 12.3751C10.9976 12.3751 11.2496 12.1231 11.2496 11.8126C11.2496 11.5021 10.9976 11.2502 10.6872 11.2502C10.3767 11.2502 10.1247 11.5021 10.1247 11.8126C10.1247 12.1231 10.3767 12.3751 10.6872 12.3751Z" fill="white"/>
<path d="M7.31236 4.50023C8.24267 4.50023 8.99974 5.2573 8.99974 6.18761C8.99974 7.11793 8.24267 7.875 7.31236 7.875C6.38204 7.875 5.62497 7.11793 5.62497 6.18761C5.62497 5.2573 6.38204 4.50023 7.31236 4.50023ZM7.31236 6.75007C7.62171 6.75007 7.87482 6.49697 7.87482 6.18761C7.87482 5.87826 7.62171 5.62515 7.31236 5.62515C7.003 5.62515 6.74989 5.87826 6.74989 6.18761C6.74989 6.49697 7.003 6.75007 7.31236 6.75007Z" fill="white"/>
<path d="M11.8113 4.49999C11.9249 4.49999 12.0386 4.53374 12.1375 4.60461C12.3907 4.78572 12.4491 5.1367 12.268 5.38981L6.64342 13.2643C6.46231 13.5174 6.11134 13.5759 5.85823 13.3948C5.60512 13.2148 5.54775 12.8627 5.72774 12.6107L11.3523 4.73623C11.4637 4.58211 11.6358 4.49999 11.8113 4.49999Z" fill="white"/>
</g>
<defs>
<clipPath id="clip0">
<rect width="18" height="18" fill="white" transform="translate(18 18) rotate(-180)"/>
</clipPath>
</defs>
</svg>
