<svg width="16" height="15" viewBox="0 0 16 15" fill="none" xmlns="http://www.w3.org/2000/svg">
<path d="M14.7364 10.9726L11.1988 7.43503L14.7364 3.89746C15.6055 3.02834 15.587 1.58695 14.7175 0.717514C13.8481 -0.151924 12.4067 -0.170477 11.5376 0.698641L8 4.23621L4.46243 0.698641C3.59331 -0.170477 2.15192 -0.151924 1.28249 0.717514C0.413047 1.58695 0.394494 3.02834 1.26361 3.89746L4.80118 7.43503L1.26361 10.9726C0.394495 11.8417 0.413047 13.2831 1.28249 14.1525C2.15192 15.022 3.59331 15.0405 4.46243 14.1714L8 10.6338L11.5376 14.1714C12.4067 15.0405 13.8481 15.022 14.7175 14.1525C15.587 13.2831 15.6055 11.8417 14.7364 10.9726Z" fill="#56666D"/>
</svg>
