<svg width="9" height="10" viewBox="0 0 9 10" fill="none" xmlns="http://www.w3.org/2000/svg">
<mask id="path-1-outside-1" maskUnits="userSpaceOnUse" x="-0.5" y="0" width="10" height="10" fill="black">
<rect fill="white" x="-0.5" width="10" height="10"/>
<path d="M5.23292 5.00006L8.34796 1.88486C8.55068 1.68223 8.55068 1.3546 8.34796 1.15197C8.14533 0.949342 7.81771 0.949342 7.61509 1.15197L4.49995 4.26717L1.38491 1.15197C1.18219 0.949342 0.854668 0.949342 0.652041 1.15197C0.44932 1.3546 0.44932 1.68223 0.652041 1.88486L3.76708 5.00006L0.652041 8.11526C0.44932 8.31789 0.44932 8.64551 0.652041 8.84815C0.753022 8.94922 0.885797 9 1.01848 9C1.15116 9 1.28384 8.94922 1.38491 8.84815L4.49995 5.73295L7.61509 8.84815C7.71616 8.94922 7.84884 9 7.98152 9C8.1142 9 8.24688 8.94922 8.34796 8.84815C8.55068 8.64551 8.55068 8.31789 8.34796 8.11526L5.23292 5.00006Z"/>
</mask>
<path d="M5.23292 5.00006L8.34796 1.88486C8.55068 1.68223 8.55068 1.3546 8.34796 1.15197C8.14533 0.949342 7.81771 0.949342 7.61509 1.15197L4.49995 4.26717L1.38491 1.15197C1.18219 0.949342 0.854668 0.949342 0.652041 1.15197C0.44932 1.3546 0.44932 1.68223 0.652041 1.88486L3.76708 5.00006L0.652041 8.11526C0.44932 8.31789 0.44932 8.64551 0.652041 8.84815C0.753022 8.94922 0.885797 9 1.01848 9C1.15116 9 1.28384 8.94922 1.38491 8.84815L4.49995 5.73295L7.61509 8.84815C7.71616 8.94922 7.84884 9 7.98152 9C8.1142 9 8.24688 8.94922 8.34796 8.84815C8.55068 8.64551 8.55068 8.31789 8.34796 8.11526L5.23292 5.00006Z" fill="#7084CB"/>
<path d="M5.23292 5.00006L5.09149 4.85864L4.95008 5.00006L5.09149 5.14148L5.23292 5.00006ZM8.34796 1.88486L8.20657 1.74341L8.20653 1.74344L8.34796 1.88486ZM8.34796 1.15197L8.20654 1.29339L8.20657 1.29343L8.34796 1.15197ZM7.61509 1.15197L7.47366 1.01055V1.01055L7.61509 1.15197ZM4.49995 4.26717L4.35853 4.40859L4.49995 4.55002L4.64138 4.40859L4.49995 4.26717ZM1.38491 1.15197L1.52634 1.01056L1.5263 1.01052L1.38491 1.15197ZM0.652041 1.15197L0.793431 1.29343L0.793464 1.29339L0.652041 1.15197ZM0.652041 1.88486L0.793466 1.74344L0.793431 1.74341L0.652041 1.88486ZM3.76708 5.00006L3.90851 5.14148L4.04992 5.00006L3.90851 4.85864L3.76708 5.00006ZM0.652041 8.11526L0.793431 8.25671L0.793466 8.25668L0.652041 8.11526ZM0.652041 8.84815L0.79353 8.70679L0.793431 8.70669L0.652041 8.84815ZM1.38491 8.84815L1.52634 8.98957L1.52634 8.98956L1.38491 8.84815ZM4.49995 5.73295L4.64138 5.59153L4.49995 5.4501L4.35853 5.59153L4.49995 5.73295ZM7.61509 8.84815L7.75651 8.70673L7.61509 8.84815ZM8.34796 8.84815L8.20657 8.70669L8.20654 8.70673L8.34796 8.84815ZM8.34796 8.11526L8.20653 8.25668L8.20657 8.25671L8.34796 8.11526ZM5.37434 5.14148L8.48938 2.02628L8.20653 1.74344L5.09149 4.85864L5.37434 5.14148ZM8.48935 2.02631C8.77022 1.74557 8.77022 1.29126 8.48935 1.01052L8.20657 1.29343C8.33114 1.41794 8.33114 1.61889 8.20657 1.74341L8.48935 2.02631ZM8.48938 1.01055C8.20865 0.729816 7.7544 0.729816 7.47366 1.01055L7.75651 1.29339C7.88103 1.16887 8.08202 1.16887 8.20654 1.29339L8.48938 1.01055ZM7.47366 1.01055L4.35853 4.12575L4.64138 4.40859L7.75651 1.29339L7.47366 1.01055ZM4.64138 4.12575L1.52634 1.01056L1.24349 1.29339L4.35853 4.40859L4.64138 4.12575ZM1.5263 1.01052C1.2455 0.729845 0.791368 0.729797 0.510618 1.01055L0.793464 1.29339C0.917967 1.16889 1.11888 1.16884 1.24352 1.29343L1.5263 1.01052ZM0.510651 1.01052C0.229783 1.29126 0.229783 1.74557 0.510651 2.02631L0.793431 1.74341C0.668856 1.61889 0.668856 1.41794 0.793431 1.29343L0.510651 1.01052ZM0.510616 2.02628L3.62566 5.14148L3.90851 4.85864L0.793466 1.74344L0.510616 2.02628ZM3.62566 4.85864L0.510616 7.97384L0.793466 8.25668L3.90851 5.14148L3.62566 4.85864ZM0.510651 7.97381C0.229783 8.25455 0.229783 8.70886 0.510651 8.9896L0.793431 8.70669C0.668856 8.58217 0.668856 8.38123 0.793431 8.25671L0.510651 7.97381ZM0.510552 8.9895C0.650533 9.12961 0.834863 9.2 1.01848 9.2V8.8C0.936732 8.8 0.855511 8.76883 0.79353 8.70679L0.510552 8.9895ZM1.01848 9.2C1.20215 9.2 1.38633 9.12958 1.52634 8.98957L1.24349 8.70673C1.18135 8.76887 1.10017 8.8 1.01848 8.8V9.2ZM1.52634 8.98956L4.64138 5.87436L4.35853 5.59153L1.24349 8.70673L1.52634 8.98956ZM4.35853 5.87437L7.47366 8.98957L7.75651 8.70673L4.64138 5.59153L4.35853 5.87437ZM7.47366 8.98957C7.61367 9.12958 7.79785 9.2 7.98152 9.2V8.8C7.89983 8.8 7.81865 8.76887 7.75651 8.70673L7.47366 8.98957ZM7.98152 9.2C8.16519 9.2 8.34937 9.12958 8.48938 8.98957L8.20654 8.70673C8.14439 8.76887 8.06321 8.8 7.98152 8.8V9.2ZM8.48935 8.9896C8.77022 8.70886 8.77022 8.25455 8.48935 7.97381L8.20657 8.25671C8.33114 8.38123 8.33114 8.58217 8.20657 8.70669L8.48935 8.9896ZM8.48938 7.97384L5.37434 4.85864L5.09149 5.14148L8.20653 8.25668L8.48938 7.97384Z" fill="#56666D" mask="url(#path-1-outside-1)"/>
</svg>
