<svg width="26" height="25" viewBox="0 0 26 25" fill="none" xmlns="http://www.w3.org/2000/svg">
<path d="M0.257629 2C0.257629 0.89543 1.15306 0 2.25763 0H23.2576C24.3622 0 25.2576 0.895431 25.2576 2V23C25.2576 24.1046 24.3622 25 23.2576 25H2.25763C1.15306 25 0.257629 24.1046 0.257629 23V2Z" fill="white"/>
<path fill-rule="evenodd" clip-rule="evenodd" d="M21.8976 13.2042C21.8976 12.566 21.8404 11.9524 21.734 11.3633H13.2576V14.8446H18.1013C17.8926 15.9696 17.2585 16.9228 16.3054 17.561V19.8192H19.214C20.9158 18.2524 21.8976 15.9451 21.8976 13.2042Z" fill="#4285F4"/>
<path fill-rule="evenodd" clip-rule="evenodd" d="M13.2576 22.0009C15.6876 22.0009 17.7249 21.195 19.214 19.8205L16.3054 17.5623C15.4995 18.1023 14.4685 18.4214 13.2576 18.4214C10.9135 18.4214 8.92945 16.8382 8.22172 14.7109H5.2149V17.0428C6.69581 19.9841 9.73945 22.0009 13.2576 22.0009Z" fill="#34A853"/>
<path fill-rule="evenodd" clip-rule="evenodd" d="M8.22172 14.7108C8.04172 14.1708 7.93945 13.594 7.93945 13.0008C7.93945 12.4076 8.04172 11.8308 8.22172 11.2908V8.95898H5.2149C4.60536 10.174 4.25763 11.5485 4.25763 13.0008C4.25763 14.4531 4.60536 15.8276 5.2149 17.0426L8.22172 14.7108Z" fill="#FBBC05"/>
<path fill-rule="evenodd" clip-rule="evenodd" d="M13.2576 7.57955C14.579 7.57955 15.7654 8.03364 16.6981 8.92545L19.2795 6.34409C17.7208 4.89182 15.6835 4 13.2576 4C9.73945 4 6.69581 6.01682 5.2149 8.95818L8.22172 11.29C8.92945 9.16273 10.9135 7.57955 13.2576 7.57955Z" fill="#EA4335"/>
</svg>
