<svg width="13" height="15" viewBox="0 0 13 15" fill="none" xmlns="http://www.w3.org/2000/svg">
<path d="M10.895 5.87461C9.74994 4.71352 8.22199 4.06087 6.59267 4.03685C4.94651 4.012 3.38586 4.63462 2.19943 5.78851C1.0141 6.94131 0.349447 8.48178 0.327943 10.1262C0.31637 11.0091 0.487406 11.8638 0.836302 12.6667C1.17289 13.4412 1.65694 14.1284 2.27507 14.7089C2.27507 14.7089 2.2751 14.7089 2.2751 14.7089C2.47479 14.8964 2.73536 14.9997 3.00884 14.9997H9.99122C10.2646 14.9997 10.5247 14.8968 10.7236 14.7101C11.3323 14.1388 11.8115 13.4635 12.1478 12.7031C12.496 11.9156 12.6726 11.0764 12.6726 10.2087C12.6726 8.57614 12.0413 7.03691 10.895 5.87461ZM7.86884 11.1031H5.13119C4.8885 11.1031 4.69174 10.9063 4.69174 10.6636C4.69174 10.4209 4.8885 10.2242 5.13119 10.2242H7.86884C8.11154 10.2242 8.30829 10.4209 8.30829 10.6636C8.30829 10.9063 8.11154 11.1031 7.86884 11.1031ZM8.74775 9.46598H4.25226C4.00956 9.46598 3.81281 9.26922 3.81281 9.02652C3.81281 8.78383 4.00956 8.58707 4.25226 8.58707H8.74772C8.99041 8.58707 9.18717 8.78383 9.18717 9.02652C9.18717 9.26922 8.99044 9.46598 8.74775 9.46598Z" fill="white"/>
<path d="M1.67804 5.07187C2.29503 4.4918 2.99698 4.03506 3.75343 3.71367L3.61046 2.99004C3.56446 2.75654 3.66612 2.58955 3.73116 2.51074C3.79591 2.43164 3.94005 2.29951 4.17794 2.29951H8.82208C9.05997 2.29951 9.20411 2.43164 9.26886 2.51074C9.3339 2.58955 9.43556 2.75654 9.38956 2.99004L9.24718 3.71103C10.0063 4.03184 10.7085 4.4877 11.3234 5.06514L11.6454 3.43564C11.8127 2.58779 11.5941 1.71855 11.0454 1.05059C10.4967 0.38291 9.68634 0 8.82208 0H4.17794C3.31368 0 2.50333 0.38291 1.9546 1.05059C1.40587 1.71855 1.18731 2.58779 1.3546 3.43564L1.67804 5.07187Z" fill="white"/>
</svg>
