<svg width="20" height="30" viewBox="0 0 20 30" fill="none" xmlns="http://www.w3.org/2000/svg">
<path d="M7.46969 19.4334C7.95455 18.9517 8.39225 18.516 8.79473 18.1076C6.48103 15.5574 5.60547 13.5586 5.60547 8.84766C5.60547 5.89594 6.37621 3.08133 7.66797 1.41791L8.7683 0H6.97357C2.41 0 0.332031 5.98178 0.332031 11.4844C0.332676 17.1667 2.20551 21.4661 3.96473 24.4285C4.20057 23.2046 4.79846 22.0828 5.71451 21.1929C6.31615 20.5809 6.91439 19.9853 7.46969 19.4334Z" fill="#7084CB"/>
<path d="M13.0264 0H11.2316L12.332 1.41791C13.6238 3.08133 14.3945 5.89594 14.3945 8.84766C14.3945 14.9717 12.962 16.4534 8.70912 20.6805C8.15811 21.2281 7.56414 21.8186 6.9393 22.4538C6.07926 23.2889 5.60547 24.4081 5.60547 25.6055C5.60547 28.0285 7.57697 30 10 30C11.4746 30 12.8436 29.2662 13.6615 28.0371C13.8152 27.8062 13.9946 27.5478 14.1928 27.262C16.106 24.5068 19.6671 19.319 19.668 11.4844C19.668 5.98178 17.59 0 13.0264 0ZM10 26.8483L8.75717 25.6055L10 24.3626L11.2428 25.6055L10 26.8483Z" fill="#7084CB"/>
</svg>
