<svg width="30" height="22" viewBox="0 0 30 22" fill="none" xmlns="http://www.w3.org/2000/svg">
<path d="M10.7696 8.85951C12.6677 9.23018 14.5898 8.38707 14.5898 7.48438C14.5898 6.79291 13.362 6.01953 11.7188 6.01953C10.1811 6.01953 8.84766 6.74135 8.84766 7.48438C8.84766 8.0549 9.67395 8.64612 10.7696 8.85951Z" fill="#7084CB"/>
<path d="M20.0707 13.1674H23.3789V11.0469C22.4362 11.9384 21.2481 12.6352 20.0707 13.1674Z" fill="#7084CB"/>
<path d="M2.65822 10.66C4.28637 11.6592 6.47777 12.4709 8.67041 12.8868C15.3718 14.1601 23.3789 10.7992 23.3789 7.48438C23.3789 5.41309 22.1077 3.49853 19.7992 2.09334C17.6271 0.771172 14.7574 0.0429688 11.7188 0.0429688C5.4624 0.0429688 0 3.18957 0 7.48438C0 8.50338 0.981855 9.63113 2.65822 10.66ZM7.12852 7.05822C7.42295 5.43846 9.35355 4.26172 11.7188 4.26172C14.3144 4.26172 16.3477 5.67729 16.3477 7.48438C16.3477 9.29146 14.3144 10.707 11.7188 10.707C11.2811 10.707 10.8485 10.666 10.4331 10.5848C8.43357 10.1954 7.08984 8.94934 7.08984 7.48438C7.08984 7.34152 7.10291 7.19809 7.12852 7.05822Z" fill="#7084CB"/>
<path d="M11.7188 14.9262C10.5679 14.9262 9.43201 14.8212 8.34258 14.6142C5.5834 14.0908 2.06941 12.8191 0 10.9072V16.391C0 18.0661 1.19643 19.6089 3.26268 20.7353C4.42881 21.3707 5.71852 21.7687 7.09606 21.9185C7.16244 21.9257 7.10807 21.9233 8.49615 21.9255V18.7596C8.49615 18.2863 8.85984 17.8791 9.33258 17.8569C9.83725 17.8331 10.2539 18.2353 10.2539 18.7348V21.9282L13.1836 21.9328V18.7596C13.1836 18.2863 13.5473 17.8791 14.02 17.8569C14.5247 17.8331 14.9414 18.2353 14.9414 18.7348V21.9354L17.8711 21.94V18.7596C17.8711 18.2863 18.2348 17.8791 18.7075 17.8569C19.2122 17.8331 19.6289 18.2353 19.6289 18.7348V21.9428L22.5586 21.9473V18.7596C22.5586 18.2863 22.9223 17.8791 23.395 17.8569C23.8997 17.8331 24.3164 18.2353 24.3164 18.7348V21.95L29.1197 21.9574C29.5796 21.9574 30 21.5973 30 21.0635V15.8051C30 15.3197 29.6065 14.9262 29.1211 14.9262H11.7188Z" fill="#7084CB"/>
</svg>
