<svg width="31" height="30" viewBox="0 0 31 30" fill="none" xmlns="http://www.w3.org/2000/svg">
<g clip-path="url(#clip0)">
<path d="M16.1819 10.3452C15.8823 10.2857 15.5729 10.2539 15.2561 10.2539C12.6391 10.2539 10.51 12.383 10.51 15C10.51 17.617 12.6391 19.7461 15.2561 19.7461C17.8731 19.7461 20.0022 17.617 20.0022 15C20.0022 14.6832 19.9704 14.3738 19.9109 14.0742L17.1206 16.8645C16.6225 17.3625 15.9604 17.6367 15.2561 17.6367C14.5518 17.6367 13.8897 17.3625 13.3916 16.8645C12.8936 16.3664 12.6194 15.7043 12.6194 15C12.6194 14.2957 12.8936 13.6336 13.3916 13.1355L16.1819 10.3452Z" fill="#7084CB"/>
<path d="M28.9137 8.80005L27.0227 10.6911C26.8334 10.8804 26.6201 11.0374 26.3898 11.1591C26.8064 12.3637 27.0334 13.6558 27.0334 15C27.0334 21.4941 21.7502 26.7773 15.2561 26.7773C8.76204 26.7773 3.47876 21.4941 3.47876 15C3.47876 8.50594 8.76204 3.22266 15.2561 3.22266C16.6008 3.22266 17.8935 3.44994 19.0983 3.86673C19.2203 3.63625 19.3762 3.42201 19.5653 3.23318L21.4561 1.34239C19.5653 0.480652 17.466 0 15.2561 0C6.985 0 0.256104 6.7289 0.256104 15C0.256104 23.2711 6.985 30 15.2561 30C23.5272 30 30.2561 23.2711 30.2561 15C30.2561 12.7901 29.7755 10.6908 28.9137 8.80005Z" fill="#7084CB"/>
<path d="M18.9892 7.53799L18.8289 5.63919C17.7186 5.2137 16.5143 4.98047 15.2561 4.98047C9.73135 4.98047 5.23657 9.47525 5.23657 15C5.23657 20.5247 9.73135 25.0195 15.2561 25.0195C20.7809 25.0195 25.2756 20.5247 25.2756 15C25.2756 13.7418 25.0424 12.5375 24.6169 11.4272L22.7181 11.2669L21.3244 12.6604C21.6055 13.3868 21.76 14.1756 21.76 15C21.76 18.5863 18.8425 21.5039 15.2561 21.5039C11.6698 21.5039 8.7522 18.5863 8.7522 15C8.7522 11.4137 11.6698 8.49609 15.2561 8.49609C16.0805 8.49609 16.8693 8.65059 17.5957 8.93166L18.9892 7.53799Z" fill="#7084CB"/>
<path d="M20.5536 5.17199L20.8095 8.20422L14.6347 14.379C14.2914 14.7221 14.2914 15.2787 14.6347 15.6218C14.8061 15.7935 15.0311 15.8793 15.2561 15.8793C15.4811 15.8793 15.7061 15.7935 15.8775 15.6218L22.0523 9.44704L25.0845 9.70271C25.1092 9.70477 25.1337 9.70591 25.1584 9.70591C25.3905 9.70591 25.6144 9.6139 25.7799 9.44842L29.5086 5.71947C29.7505 5.47778 29.8302 5.11752 29.7127 4.79616C29.5951 4.47481 29.3019 4.25097 28.9611 4.22236L26.2617 3.99462L26.0342 1.29542C26.0053 0.954383 25.7815 0.661186 25.4603 0.543769C25.139 0.426124 24.7787 0.506004 24.5368 0.747703L20.8081 4.47665C20.625 4.65975 20.5318 4.91404 20.5536 5.17199Z" fill="#7084CB"/>
</g>
<defs>
<clipPath id="clip0">
<rect width="30" height="30" fill="white" transform="translate(0.256104)"/>
</clipPath>
</defs>
</svg>
