<svg width="14" height="14" viewBox="0 0 14 14" fill="none" xmlns="http://www.w3.org/2000/svg">
<path d="M6.99845 0C3.13366 0 0 3.13422 0 6.9997C0 10.8652 3.13366 14 6.99845 14C10.8632 14 13.9975 10.8652 13.9975 6.9997C13.9975 3.13422 10.8632 0 6.99845 0ZM8.45538 10.8486C8.09514 10.9908 7.80838 11.0987 7.59331 11.1733C7.37883 11.248 7.12939 11.2853 6.84559 11.2853C6.40952 11.2853 6.07002 11.1787 5.82829 10.9659C5.58656 10.7532 5.46628 10.4836 5.46628 10.1559C5.46628 10.0284 5.47517 9.89807 5.49294 9.76533C5.51131 9.63259 5.54034 9.48326 5.58004 9.31556L6.03092 7.72267C6.07062 7.56978 6.10498 7.42459 6.13224 7.28948C6.15949 7.15318 6.17252 7.02815 6.17252 6.91437C6.17252 6.7117 6.13046 6.56948 6.04692 6.48948C5.96219 6.40948 5.80281 6.37037 5.56523 6.37037C5.4491 6.37037 5.32942 6.38756 5.20677 6.4237C5.08531 6.46104 4.97985 6.49481 4.89335 6.528L5.01244 6.03733C5.30749 5.91704 5.59011 5.81393 5.85969 5.72859C6.12927 5.64207 6.38404 5.59941 6.624 5.59941C7.05711 5.59941 7.39127 5.70489 7.62649 5.91348C7.86052 6.12267 7.97842 6.39467 7.97842 6.72889C7.97842 6.79822 7.97013 6.9203 7.95413 7.09452C7.93814 7.26933 7.90792 7.42874 7.86407 7.57511L7.41556 9.16326C7.37883 9.29067 7.34624 9.43644 7.31662 9.59941C7.28758 9.76237 7.27337 9.88682 7.27337 9.97037C7.27337 10.1813 7.32017 10.3253 7.41497 10.4018C7.50858 10.4782 7.6727 10.5167 7.90496 10.5167C8.01457 10.5167 8.13721 10.4972 8.27585 10.4593C8.41331 10.4213 8.51285 10.3876 8.57565 10.3585L8.45538 10.8486ZM8.37598 4.40237C8.16683 4.59674 7.91503 4.69393 7.62056 4.69393C7.32669 4.69393 7.0731 4.59674 6.86218 4.40237C6.65244 4.208 6.54638 3.97156 6.54638 3.69541C6.54638 3.41985 6.65303 3.18281 6.86218 2.98667C7.0731 2.78993 7.32669 2.69215 7.62056 2.69215C7.91503 2.69215 8.16743 2.78993 8.37598 2.98667C8.58513 3.18281 8.69 3.41985 8.69 3.69541C8.69 3.97215 8.58513 4.208 8.37598 4.40237Z" fill="#0011EE"/>
</svg>
