<svg width="30" height="30" viewBox="0 0 30 30" fill="none" xmlns="http://www.w3.org/2000/svg">
<g clip-path="url(#clip0)">
<path d="M26.3554 0H5.64455C3.08353 0 1 2.08353 1 4.64455V25.3555C1 27.9165 3.08353 30 5.64455 30H26.3555C28.9165 30 31 27.9165 31 25.3554V4.64455C31 2.08353 28.9165 0 26.3554 0ZM23.9424 8.30045L20.615 11.6282C20.2717 11.9715 19.7154 11.9713 19.3721 11.6284C18.4703 10.7269 17.2727 10.2305 16 10.2305C14.7273 10.2305 13.5297 10.7269 12.6279 11.6284C12.2846 11.9714 11.7282 11.9714 11.385 11.6282L8.05762 8.30045C7.71443 7.95721 7.71449 7.40074 8.05768 7.0575C10.1804 4.93471 13.0011 3.76564 16 3.76564C18.9989 3.76564 21.8196 4.93471 23.9423 7.05756C24.2855 7.40074 24.2856 7.95721 23.9424 8.30045Z" fill="#7084CB"/>
<path d="M9.95026 7.70723L12.0479 9.80507C13.179 8.94063 14.554 8.4727 16 8.4727C17.446 8.4727 18.821 8.94063 19.9522 9.80507L22.0497 7.70723C20.3518 6.29313 18.2345 5.52344 16 5.52344C13.7655 5.52344 11.6482 6.29313 9.95026 7.70723Z" fill="#7084CB"/>
</g>
<defs>
<clipPath id="clip0">
<rect width="30" height="30" fill="white"/>
</clipPath>
</defs>
</svg>
