<svg width="15" height="15" viewBox="0 0 15 15" fill="none" xmlns="http://www.w3.org/2000/svg">
<path d="M7.49988 5.00006C7.49988 2.23876 6.23949 0 4.68738 0C3.13468 0 1.87488 2.23876 1.87488 5.00006C1.87488 6.20175 2.63239 7.21988 3.69249 7.62206L3.43732 13.7499C3.43732 14.4403 3.997 15 4.68738 15C5.37776 15 5.93744 14.4403 5.93744 13.7499L5.68226 7.62261C6.74314 7.21988 7.49988 6.20175 7.49988 5.00006Z" fill="white"/>
<path d="M13.125 4.53131L12.9688 0H12.1875L12.0313 4.53131H11.4062L11.25 0H10.3125L10.1563 4.53131H9.53119L9.375 0H8.59369L8.4375 4.53131C8.4375 5.48456 9.00883 6.30114 9.82669 6.66749L9.53119 13.7499C9.53119 14.4403 10.0909 15 10.7812 15C11.4716 15 12.0313 14.4403 12.0313 13.7499L11.7358 6.66749C12.5537 6.30114 13.125 5.48456 13.125 4.53131Z" fill="white"/>
</svg>
