<svg width="20" height="20" viewBox="0 0 20 20" fill="none" xmlns="http://www.w3.org/2000/svg">
<g clip-path="url(#clip0)">
<path d="M1.84051 2.51074H18.1595C19.1743 2.51074 20 3.33637 20 4.3525C20 5.36734 19.1743 6.19301 18.1595 6.19301H1.84051C0.825665 6.19301 0 5.36734 0 4.3525C0 3.33637 0.825665 2.51074 1.84051 2.51074Z" fill="white"/>
<path d="M1.84051 8.15918H18.1595C19.1743 8.15918 20 8.9848 20 10.0009C20 11.0158 19.1743 11.8414 18.1595 11.8414H1.84051C0.825665 11.8414 0 11.0158 0 10.0009C0 8.9848 0.825665 8.15918 1.84051 8.15918Z" fill="white"/>
<path d="M6.84067 13.8076H18.493C19.5078 13.8076 20.3335 14.6333 20.3335 15.6494C20.3335 16.6642 19.5078 17.4899 18.493 17.4899H6.84067C5.82583 17.4899 5.00016 16.6642 5.00016 15.6494C5.00016 14.6333 5.82583 13.8076 6.84067 13.8076Z" fill="white"/>
</g>
<defs>
<clipPath id="clip0">
<rect width="20" height="20" fill="white" transform="matrix(-1 0 0 1 20 0)"/>
</clipPath>
</defs>
</svg>
