<svg width="12" height="15" viewBox="0 0 12 15" fill="none" xmlns="http://www.w3.org/2000/svg">
<path d="M10.9375 5.625H9.99999V4.37499C9.99999 1.9626 8.03742 0 5.625 0C3.21258 0 1.25001 1.9626 1.25001 4.37499V5.625H0.31251C0.139775 5.625 0 5.76478 0 5.93751V13.75C0 14.4394 0.560596 15 1.25001 15H10C10.6894 15 11.25 14.4394 11.25 13.75V5.93751C11.25 5.76478 11.1102 5.625 10.9375 5.625ZM6.56068 12.153C6.57044 12.2412 6.54208 12.3297 6.48287 12.3959C6.42366 12.4622 6.33882 12.5 6.25002 12.5H5.00001C4.91121 12.5 4.82637 12.4622 4.76716 12.3959C4.70795 12.3297 4.67956 12.2412 4.68935 12.153L4.88648 10.3803C4.56636 10.1474 4.37502 9.77906 4.37502 9.375C4.37502 8.68562 4.93562 8.12499 5.62503 8.12499C6.31444 8.12499 6.87504 8.68559 6.87504 9.375C6.87504 9.77906 6.6837 10.1474 6.36357 10.3803L6.56068 12.153ZM8.12499 5.625H3.12501V4.37499C3.12501 2.99651 4.24652 1.875 5.625 1.875C7.00348 1.875 8.12499 2.99651 8.12499 4.37499V5.625Z" fill="#0011EE"/>
</svg>
