<svg width="12" height="15" viewBox="0 0 12 15" fill="none" xmlns="http://www.w3.org/2000/svg">
<path d="M10.9583 5.75H10.0833V4.58332C10.0833 2.33176 8.25159 0.5 6 0.5C3.74841 0.5 1.91668 2.33176 1.91668 4.58332V5.75H1.04168C0.880457 5.75 0.75 5.88046 0.75 6.04168V13.3334C0.75 13.9768 1.27322 14.5 1.91668 14.5H10.0834C10.7268 14.5 11.25 13.9768 11.25 13.3333V6.04168C11.25 5.88046 11.1195 5.75 10.9583 5.75ZM6.8733 11.8428C6.88241 11.9251 6.85594 12.0077 6.80068 12.0696C6.74542 12.1313 6.66623 12.1667 6.58335 12.1667H5.41668C5.3338 12.1667 5.25461 12.1313 5.19935 12.0696C5.14409 12.0078 5.11759 11.9251 5.12672 11.8428L5.31072 10.1882C5.01193 9.97092 4.83335 9.62712 4.83335 9.25C4.83335 8.60657 5.35657 8.08332 6.00003 8.08332C6.64348 8.08332 7.1667 8.60655 7.1667 9.25C7.1667 9.62712 6.98812 9.97092 6.68934 10.1882L6.8733 11.8428ZM8.33332 5.75H3.66668V4.58332C3.66668 3.29675 4.71342 2.25 6 2.25C7.28658 2.25 8.33332 3.29675 8.33332 4.58332V5.75Z" fill="#8F8F8F"/>
</svg>
