<svg width="57" height="35" viewBox="0 0 57 35" fill="none" xmlns="http://www.w3.org/2000/svg">
<path d="M56.2776 14.8124C56.1664 14.0567 56.0553 13.301 55.8329 12.6532C55.6105 11.8976 55.1658 11.2498 54.4986 10.71C54.1651 10.4941 53.8315 10.2782 53.3868 10.1703C52.942 10.0623 52.6084 10.0623 52.1637 10.0623C51.3854 10.1703 50.6071 10.3862 49.9399 10.71C49.2728 11.0339 48.6057 11.3578 47.9386 11.6816C46.0484 12.7612 44.2694 13.9487 42.6016 15.2442C40.9337 14.2726 39.2659 13.193 37.5981 12.1135C35.0408 10.4941 32.5947 8.87481 29.9262 7.36343C28.7031 6.7157 27.5912 6.06797 26.3681 5.42024C14.4711 -1.59686 3.57468 -4.07983 0.572611 12.2214C0.572611 12.2214 0.350238 13.4089 0.683801 12.5453C2.68518 9.63049 4.68655 7.47139 6.79912 6.06797C6.24318 6.93161 5.90962 7.90321 5.57606 8.76685C5.13131 10.2782 4.79774 11.7896 4.68656 13.301C4.57537 14.8124 4.46418 16.3237 4.46418 17.8351C4.46418 19.3465 4.57537 20.7499 4.68656 22.2613C4.79774 23.7726 5.02012 25.284 5.35368 26.6874C5.68724 28.1988 6.132 29.6022 6.91031 31.0056C7.24387 31.6534 7.68862 32.4091 8.24456 32.9488C8.46694 33.2727 8.8005 33.4886 9.13406 33.8125C9.46762 34.0284 9.80119 34.2443 10.2459 34.4602C11.0243 34.7841 11.8026 35 12.6921 35C13.4704 35 14.3599 35 15.1382 34.7841C16.6948 34.4602 18.1403 33.8125 19.4745 33.1648C22.143 31.7613 24.5891 30.0341 27.0353 28.3068C31.8163 24.7442 36.2639 20.7499 40.9337 17.0794C41.2673 16.7555 41.7121 16.5396 42.0456 16.2158C42.9351 16.7555 43.8246 17.1874 44.8253 17.7271C46.1596 18.3749 47.4938 19.1306 48.9392 19.6703C49.6064 19.9942 50.3847 20.2101 51.163 20.3181C51.9413 20.534 52.7196 20.6419 53.4979 20.426C53.9427 20.3181 54.2763 20.2101 54.721 19.9942C55.0546 19.7783 55.3881 19.4544 55.6105 19.1306C56.0553 18.4828 56.2776 17.6192 56.3888 16.9715C56.3888 16.5396 56.5 16.2158 56.5 15.8919C56.2776 15.568 56.2776 15.1362 56.2776 14.8124ZM41.6009 16.1078C41.2673 16.3237 40.9337 16.6476 40.6002 16.8635C35.9303 20.534 31.3716 24.4204 26.4793 27.8749C25.2563 28.7386 24.0332 29.6022 22.8101 30.3579C21.5871 31.1136 20.2528 31.8693 18.9186 32.4091C17.5843 33.0568 16.1389 33.4886 14.8046 33.8125C14.1375 33.9204 13.3592 33.9204 12.6921 33.9204C12.0249 33.8125 11.3578 33.7045 10.8019 33.3807C9.57881 32.8409 8.8005 31.6534 8.13337 30.4659C7.57743 29.2784 7.13269 27.8749 6.91031 26.4715C6.46556 23.6647 6.35437 20.7499 6.46556 17.9431C6.57675 15.1362 6.79912 12.2214 7.68862 9.63049C8.13338 8.33503 8.8005 7.14752 9.57882 6.17592C10.4683 5.20433 11.469 4.55659 12.8033 4.23273C14.0263 3.90886 15.4718 4.01682 16.806 4.23273C18.2515 4.44864 19.5857 4.88046 20.92 5.31228C22.2542 5.7441 23.5885 6.39183 24.9227 6.93161C26.257 7.57934 27.7024 8.22707 29.0367 8.98276C31.7052 10.3862 34.2625 11.8976 36.8198 13.4089C38.2652 14.2726 39.7107 15.1362 41.1561 15.8919C41.2673 15.8919 41.4897 15.9999 41.6009 16.1078ZM55.6105 16.9715C55.4993 17.6192 55.2769 18.3749 54.9434 18.9147C54.4986 19.4544 53.9427 19.7783 53.2756 19.7783C52.6084 19.8863 51.9413 19.7783 51.163 19.5624C50.4959 19.3465 49.8288 19.1306 49.0504 18.8067C47.7162 18.2669 46.3819 17.5112 45.0477 16.8635C44.2694 16.4317 43.4911 15.9999 42.7127 15.568C43.1575 15.2442 43.7134 14.8124 44.1582 14.4885C45.3812 13.6248 46.6043 12.7612 47.9386 12.1135C48.6057 11.7896 49.2728 11.4657 49.9399 11.1419C50.6071 10.926 51.3854 10.71 52.0525 10.6021C52.7196 10.4941 53.4979 10.71 54.0539 11.1419C54.6098 11.5737 54.9434 12.2214 55.1658 12.8692C55.3881 13.5169 55.4993 14.2726 55.6105 14.9203C55.6105 15.2442 55.6105 15.676 55.6105 15.9999C55.7217 16.2158 55.7217 16.6476 55.6105 16.9715Z" fill="white"/>
</svg>
