<svg width="128" height="60" viewBox="0 0 128 60" fill="none" xmlns="http://www.w3.org/2000/svg">
<path d="M6.47254 59.8895C2.12031 59.8895 0 58.6745 0 56.355V46.7454C0 46.1931 0.334786 45.8618 1.00436 45.8618C1.67393 45.8618 2.00872 46.1931 2.00872 46.7454V56.355C2.00872 57.6804 3.45946 58.2327 6.36094 58.2327H14.5074C15.0654 58.2327 15.2886 58.5641 15.2886 59.1164C15.2886 59.6686 15.0654 59.8895 14.5074 59.8895H6.47254ZM19.4176 59.1164C19.4176 59.6686 19.0828 60 18.4133 60C17.7437 60 17.4089 59.6686 17.4089 59.1164V46.7454C17.4089 46.1931 17.7437 45.8618 18.5248 45.8618C19.1944 45.8618 19.5292 46.1931 19.5292 46.7454V59.1164H19.4176ZM45.3078 59.1164C45.3078 59.6686 44.973 60 44.1918 60C43.5222 60 43.1875 59.6686 43.1875 59.1164V48.9545L35.2642 59.2268C34.9294 59.7791 34.3714 60 33.8134 60C33.1439 60 32.6975 59.7791 32.3627 59.2268L24.3278 48.9545V59.1164C24.3278 59.6686 23.993 60 23.3235 60C22.6539 60 22.3191 59.6686 22.3191 59.1164V47.0768C22.3191 46.3036 22.7655 45.8618 23.5466 45.8618C24.1046 45.8618 24.551 46.0827 24.8858 46.5245L33.8134 57.9014L42.6295 46.414C42.7411 46.1931 42.9643 46.0827 43.1875 45.9722C43.4106 45.8618 43.6338 45.8618 43.857 45.8618C44.6382 45.8618 45.0846 46.3036 45.0846 47.0768V59.1164H45.3078ZM50.4412 59.1164C50.4412 59.6686 50.1064 60 49.4368 60C48.7672 60 48.4324 59.6686 48.4324 59.1164V46.7454C48.4324 46.1931 48.7672 45.8618 49.5484 45.8618C50.218 45.8618 50.5527 46.1931 50.5527 46.7454V59.1164H50.4412ZM60.8195 47.6291V59.1164C60.8195 59.6686 60.4847 60 59.8152 60C59.1456 60 58.8108 59.6686 58.8108 59.1164V47.6291H53.0078C52.4499 47.6291 52.2267 47.2977 52.2267 46.7454C52.2267 46.1931 52.4499 45.9722 53.0078 45.9722H66.6225C67.1805 45.9722 67.4037 46.1931 67.4037 46.7454C67.4037 47.2977 67.1805 47.6291 66.6225 47.6291H60.8195ZM86.1517 45.9722H77.1125C76.5545 45.9722 76.3313 46.3036 76.3313 46.8559C76.3313 47.4081 76.5545 47.6291 77.1125 47.6291H86.0401C88.272 47.6291 89.4996 48.1813 89.4996 49.3963V52.0472H77.1125C76.6661 52.0472 76.4429 52.3786 76.4429 52.9309C76.4429 53.4832 76.6661 53.8145 77.1125 53.8145H89.4996V56.5759C89.4996 57.7909 87.6024 58.3432 84.701 58.3432H77.2241H77.1125H75.2153C72.3139 58.3432 70.8631 57.6804 70.8631 56.4654V46.8559C70.8631 46.3036 70.5283 45.9722 69.8588 45.9722C69.1892 45.9722 68.8544 46.3036 68.8544 46.8559V56.355C68.8544 58.785 70.9747 59.8895 75.3269 59.8895H83.4734H83.585H85.9285C89.7228 59.8895 91.6199 58.785 91.6199 56.4654V49.2859C91.6199 47.0768 89.8343 45.9722 86.1517 45.9722ZM109.364 56.7968C109.364 58.8955 107.578 60 104.119 60H94.7446C94.1866 60 93.9634 59.6686 93.9634 59.1164C93.9634 58.5641 94.1866 58.3432 94.7446 58.3432H104.342C106.239 58.3432 107.243 57.7909 107.243 56.6864V55.4714C107.243 54.2563 106.127 53.7041 103.784 53.7041H99.5432C95.8605 53.7041 94.075 52.71 94.075 50.7218V49.2859C94.075 47.0768 95.6373 46.0827 98.8736 46.0827H108.136C108.694 46.0827 108.917 46.3036 108.917 46.8559C108.917 47.4081 108.694 47.6291 108.136 47.6291H98.5388C96.9765 47.6291 96.1953 48.1813 96.1953 49.3963V50.5009C96.1953 51.495 97.1997 52.0472 99.2084 52.0472H103.561C105.458 52.0472 106.908 52.2682 107.913 52.8204C108.917 53.3727 109.364 54.1459 109.364 55.2504V56.7968ZM128 56.7968C128 58.8955 126.214 60 122.755 60H113.381C112.823 60 112.6 59.6686 112.6 59.1164C112.6 58.5641 112.823 58.3432 113.381 58.3432H122.978C124.875 58.3432 125.88 57.7909 125.88 56.6864V55.4714C125.88 54.2563 124.764 53.7041 122.42 53.7041H118.18C114.497 53.7041 112.711 52.71 112.711 50.7218V49.2859C112.711 47.0768 114.274 46.0827 117.51 46.0827H126.772C127.33 46.0827 127.554 46.3036 127.554 46.8559C127.554 47.4081 127.33 47.6291 126.772 47.6291H117.175C115.613 47.6291 114.832 48.1813 114.832 49.3963V50.5009C114.832 51.495 115.836 52.0472 117.845 52.0472H122.197C124.094 52.0472 125.545 52.2682 126.549 52.8204C127.554 53.3727 128 54.1459 128 55.2504V56.7968ZM91.9547 15.1553C91.8431 14.3821 91.7315 13.6089 91.5083 12.9462C91.2851 12.173 90.8387 11.5103 90.1691 10.958C89.8344 10.7371 89.4996 10.5162 89.0532 10.4057C88.6068 10.2953 88.272 10.2953 87.8256 10.2953C87.0445 10.4057 86.2633 10.6267 85.5937 10.958C84.9241 11.2894 84.2546 11.6208 83.585 11.9521C81.6879 13.0567 79.9024 14.2717 78.2284 15.5971C76.5545 14.603 74.8806 13.4985 73.2066 12.3939C70.6399 10.7371 68.1848 9.08029 65.5065 7.53392C64.279 6.87119 63.163 6.20846 61.9355 5.54573C49.9948 -1.63383 39.0584 -4.1743 36.0453 12.5044C36.0453 12.5044 35.8221 13.7194 36.1569 12.8358C38.1656 9.85347 40.1744 7.64438 42.2947 6.20846C41.7367 7.0921 41.4019 8.0862 41.0671 8.96984C40.6208 10.5162 40.286 12.0626 40.1744 13.6089C40.0628 15.1553 39.9512 16.7017 39.9512 18.248C39.9512 19.7944 40.0628 21.2303 40.1744 22.7767C40.286 24.3231 40.5092 25.8694 40.8439 27.3054C41.1787 28.8517 41.6251 30.2876 42.4063 31.7235C42.7411 32.3863 43.1874 33.1595 43.7454 33.7117C43.9686 34.0431 44.3034 34.264 44.6382 34.5954C44.973 34.8163 45.3078 35.0372 45.7541 35.2581C46.5353 35.5895 47.3165 35.8104 48.2092 35.8104C48.9904 35.8104 49.8832 35.8104 50.6643 35.5895C52.2267 35.2581 53.6774 34.5954 55.0166 33.9326C57.6949 32.4967 60.15 30.7295 62.6051 28.9622C67.4037 25.3172 71.8675 21.2303 76.5545 17.4749C76.8893 17.1435 77.3357 16.9226 77.6704 16.5912C78.5632 17.1435 79.456 17.5853 80.4603 18.1376C81.7995 18.8003 83.1386 19.5735 84.5894 20.1258C85.2589 20.4571 86.0401 20.6781 86.8213 20.7885C87.6024 21.0094 88.3836 21.1199 89.1648 20.899C89.6112 20.7885 89.9459 20.6781 90.3923 20.4571C90.7271 20.2362 91.0619 19.9049 91.2851 19.5735C91.7315 18.9108 91.9547 18.0271 92.0663 17.3644C92.0663 16.9226 92.1778 16.5912 92.1778 16.2599C91.9547 15.9285 91.9547 15.4867 91.9547 15.1553ZM77.2241 16.4808C76.8893 16.7017 76.5545 17.033 76.2197 17.254C71.5327 21.0094 66.9573 24.9858 62.0471 28.5204C60.8195 29.404 59.592 30.2876 58.3644 31.0608C57.1369 31.834 55.7977 32.6072 54.4586 33.1595C53.1194 33.8222 51.6687 34.264 50.3296 34.5954C49.66 34.7058 48.8788 34.7058 48.2092 34.7058C47.5397 34.5954 46.8701 34.4849 46.3121 34.1536C45.0846 33.6013 44.3034 32.3863 43.6338 31.1713C43.0759 29.9563 42.6295 28.5204 42.4063 27.0844C41.9599 24.2126 41.8483 21.2303 41.9599 18.3585C42.0715 15.4867 42.2947 12.5044 43.1875 9.85347C43.6338 8.52802 44.3034 7.31301 45.0846 6.31892C45.9773 5.32482 46.9817 4.6621 48.3208 4.33073C49.5484 3.99937 50.9991 4.10982 52.3383 4.33073C53.789 4.55164 55.1282 4.99346 56.4673 5.43528C57.8065 5.8771 59.1456 6.53983 60.4847 7.0921C61.8239 7.75483 63.2746 8.41756 64.6138 9.19075C67.2921 10.6267 69.8588 12.173 72.4255 13.7194C73.8762 14.603 75.3269 15.4867 76.7777 16.2599C76.8893 16.2599 77.1125 16.3703 77.2241 16.4808ZM91.2851 17.3644C91.1735 18.0271 90.9503 18.8003 90.6155 19.3526C90.1691 19.9049 89.6112 20.2362 88.9416 20.2362C88.272 20.3467 87.6024 20.2362 86.8213 20.0153C86.1517 19.7944 85.4821 19.5735 84.701 19.2421C83.3618 18.6899 82.0227 17.9167 80.6835 17.254C79.9024 16.8121 79.1212 16.3703 78.34 15.9285C78.7864 15.5971 79.3444 15.1553 79.7908 14.8239C81.0183 13.9403 82.2459 13.0567 83.585 12.3939C84.2546 12.0626 84.9241 11.7312 85.5937 11.3998C86.2633 11.1789 87.0445 10.958 87.714 10.8476C88.3836 10.7371 89.1648 10.958 89.7228 11.3998C90.2807 11.8417 90.6155 12.5044 90.8387 13.1671C91.0619 13.8299 91.1735 14.603 91.2851 15.2658C91.2851 15.5971 91.2851 16.0389 91.2851 16.3703C91.3967 16.5912 91.3967 17.033 91.2851 17.3644Z" fill="#0011EE"/>
</svg>
