<svg width="25" height="25" viewBox="0 0 25 25" fill="none" xmlns="http://www.w3.org/2000/svg">
<path d="M12.4998 8.33344C12.4998 3.73126 10.3991 0 7.81226 0C5.22443 0 3.12476 3.73126 3.12476 8.33344C3.12476 10.3362 4.38727 12.0331 6.15411 12.7034L5.72882 22.9166C5.72882 24.0672 6.66162 25 7.81226 25C8.96289 25 9.89569 24.0672 9.89569 22.9166L9.4704 12.7043C11.2385 12.0331 12.4998 10.3362 12.4998 8.33344Z" fill="white"/>
<path d="M21.875 7.55219L21.6147 0H20.3125L20.0522 7.55219H19.0103L18.75 0H17.1875L16.9272 7.55219H15.8853L15.625 0H14.3228L14.0625 7.55219C14.0625 9.14093 15.0147 10.5019 16.3778 11.1125L15.8853 22.9166C15.8853 24.0672 16.8181 25 17.9688 25C19.1194 25 20.0522 24.0672 20.0522 22.9166L19.5597 11.1125C20.9228 10.5019 21.875 9.14093 21.875 7.55219Z" fill="white"/>
</svg>
