<svg width="60" height="60" viewBox="0 0 60 60" fill="none" xmlns="http://www.w3.org/2000/svg">
<path d="M30 60C46.5685 60 60 46.5685 60 30C60 13.4315 46.5685 0 30 0C13.4315 0 0 13.4315 0 30C0 46.5685 13.4315 60 30 60Z" fill="#F3F2F2"/>
<path d="M43.9759 24.9582C42.7276 24.9582 41.7405 25.2892 40.9854 25.4404L40.7533 27.338C41.1308 27.1566 42.3213 26.8264 43.3085 26.7951C44.2962 26.7652 44.8764 26.976 44.6732 27.8197C41.7411 27.8197 39.7661 28.4213 39.3597 30.319C38.7785 33.5719 42.3502 33.4819 43.7732 32.066L43.5994 32.8485H46.2124L47.3445 27.6676C47.808 25.4698 45.8052 24.9283 43.9759 24.9582ZM44.1502 30.2588C44.0053 30.9513 43.4539 31.2526 42.786 31.2834C42.2053 31.3133 41.6827 30.8002 42.0603 30.1982C42.3507 29.6866 43.164 29.5662 43.6571 29.5662C43.8603 29.5662 44.0929 29.5662 44.2966 29.5662C44.2373 29.807 44.2079 30.0178 44.1502 30.2588Z" fill="#1A80AD"/>
<path d="M49.5795 22.9102L47.4175 32.8493H50.0716L52.2606 22.9102H49.5795Z" fill="#1A80AD"/>
<path d="M37.3842 22.9414H32.5245L30.3711 32.8503H33.1933L33.9214 29.5676H35.929C37.9081 29.5676 39.5377 28.363 39.9739 26.3146C40.4689 23.9955 38.7811 22.9414 37.3842 22.9414ZM37.298 26.3146C37.1232 27.0674 36.3663 27.6693 35.6382 27.6693H34.3289L34.9111 24.9589H36.3076C37.0356 24.9594 37.4718 25.5615 37.298 26.3146Z" fill="#1A80AD"/>
<path d="M18.5262 24.9582C17.2926 24.9582 16.3173 25.2892 15.5996 25.4404L15.3712 27.3376C15.7156 27.1562 16.8913 26.826 17.8667 26.7947C18.8421 26.7649 19.4158 26.9757 19.2429 27.8193C16.3467 27.8193 14.3964 28.4209 13.9947 30.3186C13.4206 33.5715 16.9483 33.4815 18.3253 32.0657L18.1537 32.8482H20.7638L21.8822 27.6673C22.3405 25.4698 20.3325 24.9283 18.5262 24.9582ZM18.7271 30.2588C18.5832 30.9513 18.0089 31.2526 17.3505 31.2834C16.7769 31.3133 16.2889 30.8002 16.6622 30.1982C16.9483 29.6866 17.7517 29.5662 18.2107 29.5662C18.4405 29.5662 18.6409 29.5662 18.871 29.5662C18.8123 29.807 18.7555 30.0178 18.7271 30.2588Z" fill="#1A5B80"/>
<path d="M23.019 25.1016H25.6291L26.0502 29.7159L28.6035 25.1016H31.2969L25.0957 36.145H22.1777L24.0848 32.8988L23.019 25.1016Z" fill="#1A5B80"/>
<path d="M12.0346 22.9395H7.16206L5.00293 32.8483H7.86215L8.56224 29.5656H10.6044C12.5593 29.5656 14.1932 28.361 14.6309 26.3127C15.1269 23.9935 13.4643 22.9395 12.0346 22.9395ZM11.947 26.3127C11.7721 27.0654 11.0432 27.6674 10.3132 27.6674H8.97128L9.58427 24.9569H10.9846C11.6845 24.9574 12.1512 25.5595 11.947 26.3127Z" fill="#1A5B80"/>
<path d="M52.8333 24.1949V23.0225H52.396V22.8652H53.4496V23.0225H53.01V24.1949H52.8333Z" fill="#1A5B80"/>
<path d="M53.6235 24.1949V22.8652H53.8874L54.2023 23.806C54.2317 23.8936 54.2521 23.9585 54.2658 24.0016C54.281 23.9537 54.3046 23.8827 54.3359 23.7894L54.6557 22.8652H54.892V24.1949H54.7229V23.0817L54.3354 24.1949H54.1777L53.7925 23.0632V24.1949H53.6235Z" fill="#1A5B80"/>
</svg>
