<svg width="30" height="26" viewBox="0 0 30 26" fill="none" xmlns="http://www.w3.org/2000/svg">
<path d="M19.8383 15.0245C19.8383 17.6924 17.6679 19.8628 15 19.8628C12.3321 19.8628 10.1625 17.6924 10.1625 15.0245C10.1625 12.3565 12.3321 10.1862 15 10.1862C17.6679 10.1862 19.8383 12.3574 19.8383 15.0245ZM30 8.15435V21.8963C30 23.7282 28.5147 25.2136 26.6827 25.2136H3.3173C1.48532 25.2136 0 23.7282 0 21.8963V8.15435C0 6.32237 1.48532 4.83705 3.3173 4.83705H7.39758V3.68926C7.39758 2.08617 8.6963 0.786621 10.3002 0.786621H19.6998C21.3037 0.786621 22.6024 2.08617 22.6024 3.68926V4.83622H26.6827C28.5147 4.83704 30 6.32237 30 8.15435ZM22.3263 15.0245C22.3263 10.9848 19.0396 7.69822 15 7.69822C10.9612 7.69822 7.67457 10.9848 7.67457 15.0245C7.67457 19.0641 10.9612 22.3507 15 22.3507C19.0396 22.3507 22.3263 19.0641 22.3263 15.0245Z" fill="#7084CB"/>
</svg>
