<svg width="19" height="23" viewBox="0 0 19 23" fill="none" xmlns="http://www.w3.org/2000/svg">
<path d="M17.4453 8.66406L4.03125 0.914063C3.64781 0.687204 3.21114 0.565906 2.76562 0.5625C2.06529 0.5625 1.39363 0.840708 0.898421 1.33592C0.403208 1.83113 0.125 2.50279 0.125 3.20312V19.8359C0.125089 20.3007 0.249673 20.7569 0.485798 21.1572C0.721924 21.5575 1.06097 21.8872 1.46768 22.1121C1.8744 22.337 2.33393 22.4489 2.7985 22.436C3.26307 22.4232 3.71572 22.2861 4.10938 22.0391L17.5391 13.5547C17.9566 13.2934 18.2994 12.9283 18.5339 12.4951C18.7685 12.0619 18.8868 11.5753 18.8773 11.0828C18.8679 10.5903 18.731 10.1086 18.48 9.68474C18.2291 9.26085 17.8726 8.9092 17.4453 8.66406Z" fill="white"/>
</svg>
