<svg width="23" height="25" viewBox="0 0 23 25" fill="none" xmlns="http://www.w3.org/2000/svg">
<path d="M19.7657 6.78379L21.3356 5.21387C21.6216 4.92783 21.6216 4.46411 21.3356 4.17808C21.0496 3.89204 20.5858 3.89204 20.2998 4.17808L18.7299 5.748C16.9682 4.20508 14.7119 3.21533 12.2324 3.05176V1.46484H12.9648C13.3693 1.46484 13.6973 1.13691 13.6973 0.732422C13.6973 0.32793 13.3693 0 12.9648 0H10.0352C9.63066 0 9.30273 0.32793 9.30273 0.732422C9.30273 1.13691 9.63066 1.46484 10.0352 1.46484H10.7676V3.05176C5.0498 3.42969 0.513672 8.20166 0.513672 14.0137C0.513672 20.0718 5.44189 25 11.5 25C17.5581 25 22.4863 20.0718 22.4863 14.0137C22.4863 11.2476 21.459 8.71733 19.7657 6.78379ZM11.5 22.0703C7.05762 22.0703 3.44336 18.4561 3.44336 14.0137C3.44336 9.57129 7.05762 5.95703 11.5 5.95703C15.9424 5.95703 19.5566 9.57129 19.5566 14.0137C19.5566 18.4561 15.9424 22.0703 11.5 22.0703Z" fill="white"/>
<path d="M11.5 7.42188C7.86523 7.42188 4.9082 10.3789 4.9082 14.0137C4.9082 17.6484 7.86523 20.6055 11.5 20.6055C15.1348 20.6055 18.0918 17.6484 18.0918 14.0137C18.0918 10.3789 15.1348 7.42188 11.5 7.42188ZM15.124 11.4258L12.0181 14.5317C11.7319 14.8174 11.2681 14.8179 10.9819 14.5317C10.6963 14.2456 10.6963 13.7817 10.9819 13.4956L14.0879 10.3896C14.374 10.1035 14.8379 10.1035 15.124 10.3896C15.4102 10.6758 15.4102 11.1396 15.124 11.4258Z" fill="white"/>
</svg>
