<svg width="25" height="25" viewBox="0 0 25 25" fill="none" xmlns="http://www.w3.org/2000/svg">
<path d="M18.1569 17.8633C16.877 17.8633 15.8216 18.8962 15.8216 20.1986C15.8216 21.4785 16.8545 22.5339 18.1569 22.5339C19.4368 22.5339 20.4922 21.5009 20.4922 20.1986C20.4697 18.9187 19.4368 17.8633 18.1569 17.8633Z" fill="white"/>
<path d="M22.2661 6.72468C22.2212 6.72468 22.1539 6.70223 22.0865 6.70223H7.94004L7.71549 5.19776C7.58076 4.20976 6.72748 3.46875 5.71702 3.46875H3.89819C3.40418 3.46875 3 3.87293 3 4.36694C3 4.86094 3.40418 5.26513 3.89819 5.26513H5.71702C5.82929 5.26513 5.91911 5.35495 5.94157 5.46722L7.33376 14.9431C7.5134 16.1332 8.54631 17.0314 9.75887 17.0314H19.1C20.2677 17.0314 21.2781 16.2006 21.5251 15.0554L22.9847 7.7576C23.0745 7.28605 22.7601 6.8145 22.2661 6.72468Z" fill="white"/>
<path d="M12.431 20.0863C12.3861 18.8513 11.3532 17.8633 10.1182 17.8633C8.81579 17.9306 7.82778 19.0085 7.87269 20.2884C7.9176 21.5234 8.92806 22.5114 10.1631 22.5114H10.208C11.4879 22.444 12.4984 21.3662 12.431 20.0863Z" fill="white"/>
</svg>
