<svg width="16" height="14" viewBox="0 0 16 14" fill="none" xmlns="http://www.w3.org/2000/svg">
<path d="M15.3333 0H0V3H15.3333V0Z" fill="#56666D"/>
<path d="M4.33334 4H0V6.66665H4.33334V4Z" fill="#56666D"/>
<path d="M4.33334 11.3335H0V14.0001H4.33334V11.3335Z" fill="#56666D"/>
<path d="M4.33334 7.6665H0V10.3332H4.33334V7.6665Z" fill="#56666D"/>
<path d="M10 4H5.33337V6.66665H10V4Z" fill="#56666D"/>
<path d="M10 11.3335H5.33337V14.0001H10V11.3335Z" fill="#56666D"/>
<path d="M10 7.6665H5.33337V10.3332H10V7.6665Z" fill="#56666D"/>
<path d="M15.3334 4H11.0001V6.66665H15.3334V4Z" fill="#56666D"/>
<path d="M15.3334 11.3335H11.0001V14.0001H15.3334V11.3335Z" fill="#56666D"/>
<path d="M15.3334 7.6665H11.0001V10.3332H15.3334V7.6665Z" fill="#56666D"/>
</svg>
