<svg width="48" height="30" viewBox="0 0 48 30" fill="none" xmlns="http://www.w3.org/2000/svg">
<path fill-rule="evenodd" clip-rule="evenodd" d="M6.27636 0.45266H6.49782L6.86826 0.525145L7.31119 0.599635L8.49199 0.895588L10.1167 1.18953L11.0036 1.41301L11.9639 1.63346L12.9977 1.78144L14.0306 2.0774L15.1389 2.22436L16.2462 2.52032L19.7906 3.1837L20.8989 3.47966L22.0807 3.70112L23.1125 3.92258L24.2219 4.14405L25.2547 4.3655L26.2895 4.51348L27.1754 4.73595L28.0622 4.88292L28.8001 5.10338L29.4645 5.25236L30.0544 5.32484L30.5718 5.39933L30.9423 5.47383L31.1627 5.54731H31.3097L32.271 5.76878L33.1569 5.91675L33.8958 6.13821L34.4857 6.28519L35.0776 6.50766L35.5205 6.65563L36.1104 6.95058L36.3319 7.09856L36.7013 7.46699V7.54148L36.7768 7.61497V7.68845H39.9497L40.2467 7.76294H40.5417L40.7631 7.83643H40.9846L41.206 7.91092L41.7969 8.20486L41.8704 8.35385L42.3878 9.16521L42.5358 10.1245L42.3878 11.3074L42.0194 12.4147L41.5755 13.522L41.1315 14.4088L40.7631 14.9997L40.6161 15.2212L40.4682 15.2967L40.0987 15.4417L39.5813 15.6641L38.8424 15.9591L38.0301 16.256L36.9972 16.6979L35.8889 17.1409L34.6336 17.5848L33.2304 18.1747L31.7526 18.6921L30.2779 19.282L27.0284 20.6128L25.3292 21.2772L23.63 21.8691L21.9328 22.604L20.1611 23.2704L18.4618 23.8603L16.8361 24.6001L15.1389 25.1921L13.5876 25.7819L10.6331 26.9627L9.30435 27.4802L8.04906 27.9231L6.94175 28.365L5.98241 28.7344L5.16904 29.1039L4.50566 29.3264L3.98824 29.5488L3.69229 29.6213L3.6178 29.6938H41.7969L47.9999 0.304688H6.27636V0.45266Z" fill="#0011EE"/>
<path fill-rule="evenodd" clip-rule="evenodd" d="M34.8564 9.97743L34.6339 10.0519L33.1571 10.3459H32.7877L32.4917 10.4193H32.1978L31.7529 10.4948L31.5324 10.5683L31.3844 10.6418L31.3099 10.7908V10.9368L31.4589 11.0847H31.7529L32.0488 11.1582H32.7877L33.2306 11.0847H33.6735L34.7084 10.9368H35.2258L35.8157 10.8623L36.3321 10.7908L36.777 10.7153L37.2924 10.6418H39.2866L39.5071 10.7153L39.6561 10.7908L39.803 11.0113V11.3062L39.7295 11.6012L39.6561 11.9706L39.5071 12.4135L39.2866 12.9309L39.1386 13.4484L39.0652 13.7433L39.2121 13.8913L39.3601 13.8168L39.6561 13.5208L39.803 13.3004L40.0245 12.9309L40.247 12.488L40.4684 11.9706L40.6889 11.5287L40.8369 11.0847L40.9103 10.7153V10.2724L40.7634 9.90294L40.5419 9.68148L40.247 9.46002L39.8775 9.31204L39.4336 9.23855L38.9182 9.16406H35.8157L35.7422 9.23855H35.6677L35.5207 9.31204L35.3718 9.60799L35.2258 9.68148L35.0778 9.82945L34.8564 9.97743Z" fill="#0011EE"/>
<path fill-rule="evenodd" clip-rule="evenodd" d="M4.87419 7.09766L0 29.6929L0.22247 29.6204L0.665395 29.3255L1.40327 29.0305L2.36462 28.5131L3.47092 27.9967L4.72722 27.3323L6.20397 26.6669L7.60724 25.928L9.08399 25.2636L10.4863 24.5247L11.8895 23.8594L13.2183 23.195L14.3266 22.6031L15.286 22.1611L16.0248 21.7937L16.5422 21.5712L17.2801 21.2018L17.9455 20.8324L18.7569 20.4619L19.5692 20.02L20.3081 19.6506L21.194 19.2811L22.0063 18.8382L22.8922 18.4708L23.779 18.0258L28.2093 16.1806L30.2035 15.5152L30.4984 15.4408L30.7934 15.2958L31.1628 15.2203L32.4916 14.7774L34.0438 14.3344L34.5602 14.26L36.1105 13.817L36.9973 13.6701L37.2923 13.5956L37.5137 13.5211H37.7362L37.9567 13.4486L38.1046 13.3006H38.1791V13.2251L38.0302 12.9312L37.8087 12.8577L37.5137 12.7832H37.2188L36.7769 12.7107H36.3319L35.8155 12.7832L34.9297 12.8577L33.9693 13.0047L32.9355 13.2251L31.8272 13.4486L30.7209 13.7435L29.5391 14.113L28.4308 14.4824L27.25 14.8509L26.1427 15.2958L25.0333 15.6632L24.0005 16.0327L23.0412 16.4021L22.1533 16.845L21.4154 17.14L20.751 17.4369L20.2336 17.7319L17.4281 9.01733H35.2991L35.3716 8.6489L35.0777 8.27845L34.6337 8.05699L33.9693 7.83553L33.2305 7.61407L31.3098 7.31912L28.2093 7.09766H4.87419Z" fill="#0011EE"/>
</svg>
