<svg width="34" height="25" viewBox="0 0 34 25" fill="none" xmlns="http://www.w3.org/2000/svg">
<rect x="0.303571" y="0.803571" width="33.3929" height="23.3929" rx="3.69643" fill="white" stroke="#B1C1C8" stroke-width="0.607143"/>
<path fill-rule="evenodd" clip-rule="evenodd" d="M10.7496 16.3577H8.68983L7.14527 10.2918C7.07196 10.0128 6.9163 9.76614 6.68733 9.64988C6.1159 9.35771 5.48623 9.12518 4.79932 9.00791V8.77437H8.1174C8.57534 8.77437 8.9188 9.12518 8.97604 9.5326L9.77744 13.9081L11.8362 8.77437H13.8387L10.7496 16.3577ZM14.9834 16.3577H13.0381L14.6399 8.77437H16.5852L14.9834 16.3577ZM19.1018 10.8753C19.159 10.4669 19.5025 10.2334 19.9032 10.2334C20.5329 10.1747 21.2188 10.292 21.7912 10.5832L22.1347 8.95042C21.5622 8.71688 20.9326 8.59961 20.3611 8.59961C18.4731 8.59961 17.0993 9.65002 17.0993 11.1078C17.0993 12.2169 18.0724 12.7992 18.7593 13.15C19.5025 13.4998 19.7887 13.7334 19.7315 14.0832C19.7315 14.6079 19.159 14.8414 18.5876 14.8414C17.9007 14.8414 17.2138 14.6665 16.5851 14.3743L16.2416 16.0081C16.9286 16.2992 17.6717 16.4165 18.3586 16.4165C20.4756 16.4741 21.7912 15.4247 21.7912 13.8496C21.7912 11.8661 19.1018 11.7498 19.1018 10.8753ZM28.5995 16.3577L27.055 8.77437H25.3959C25.0525 8.77437 24.709 9.00791 24.5945 9.35771L21.7344 16.3577H23.7369L24.1366 15.2497H26.597L26.826 16.3577H28.5995ZM25.6816 10.817L26.253 13.675H24.6512L25.6816 10.817Z" fill="#0055AA"/>
</svg>
