<svg width="60" height="60" viewBox="0 0 60 60" fill="none" xmlns="http://www.w3.org/2000/svg">
<g clip-path="url(#clip0)">
<path d="M30.0002 60.0014C46.568 60.0014 59.9989 46.5705 59.9989 30.0026C59.9989 13.4348 46.568 0.00390625 30.0002 0.00390625C13.4324 0.00390625 0.00146484 13.4348 0.00146484 30.0026C0.00146484 46.5705 13.4324 60.0014 30.0002 60.0014Z" fill="#F3F2F2"/>
<path d="M22.2148 35.756L24.5104 22.2012H28.2267L25.9314 35.756H22.2148Z" fill="#293688"/>
<path d="M39.1616 22.5513C38.4251 22.2766 37.2712 21.9824 35.8301 21.9824C32.1572 21.9824 29.57 23.8213 29.5477 26.4558C29.5273 28.4031 31.3946 29.4893 32.8052 30.1382C34.2518 30.8013 34.7383 31.2268 34.7312 31.8193C34.7222 32.7279 33.5754 33.1432 32.5068 33.1432C31.0195 33.1427 30.2289 32.9377 29.0082 32.4318L28.5293 32.2158L28.0073 35.2503C28.8756 35.6288 30.4813 35.957 32.1482 35.9736C36.0546 35.9727 38.5917 34.1566 38.6201 31.3425C38.6343 29.8007 37.6438 28.6273 35.4995 27.6596C34.2001 27.0334 33.4044 26.6151 33.413 25.9795C33.413 25.4163 34.087 24.8138 35.5416 24.8138C36.7571 24.7948 37.6376 25.0583 38.324 25.333L38.6566 25.4893L39.1616 22.5513Z" fill="#293688"/>
<path d="M45.498 22.2012C44.6075 22.2012 43.9642 22.4731 43.5729 23.3556L38.0649 35.7565H41.9998L42.7648 33.6793H47.4661L47.9028 35.7565H51.401L48.3406 22.2016H45.4981L45.498 22.2012ZM43.8088 30.9671C44.1158 30.1865 45.2891 27.1785 45.2891 27.1785C45.2678 27.2141 45.5945 26.3942 45.7822 25.8854L46.0337 27.0535C46.0337 27.0535 46.7446 30.2892 46.8939 30.9675H43.8088V30.9671Z" fill="#293688"/>
<path d="M15.4375 31.4929L15.1101 29.6346C14.4318 27.4685 12.3267 25.1247 9.96777 23.9504L13.2513 35.756H17.1871L23.0896 22.2012H19.1547L15.4375 31.4929Z" fill="#293688"/>
<path d="M5.92725 22.2012V22.4201C10.5907 23.5417 13.8283 26.3772 15.11 29.6347L13.7625 23.358C13.5375 22.5002 12.8558 22.231 12.0492 22.2013L5.92725 22.2012Z" fill="#F7981D"/>
<path d="M29.9978 60.0011C41.5765 60.0011 51.6161 53.4378 56.6168 43.832H3.37939C8.38045 53.4378 18.4197 60.0011 29.9978 60.0011Z" fill="#F7981D"/>
<path d="M29.9978 0C18.6029 0 8.69205 6.35294 3.61377 15.7106H56.3828C51.3039 6.35345 41.3927 0 29.9978 0Z" fill="#293688"/>
</g>
<defs>
<clipPath id="clip0">
<rect width="60" height="60" fill="white"/>
</clipPath>
</defs>
</svg>
