<svg width="29" height="31" viewBox="0 0 29 31" fill="none" xmlns="http://www.w3.org/2000/svg">
<path d="M25.3554 0.5H4.64455C2.08353 0.5 0 2.58353 0 5.14455V25.8555C0 28.4165 2.08353 30.5 4.64455 30.5H25.3555C27.9165 30.5 30 28.4165 30 25.8554V5.14455C30 2.58353 27.9165 0.5 25.3554 0.5ZM22.9424 8.80045L19.615 12.1282C19.2717 12.4715 18.7154 12.4713 18.3721 12.1284C17.4703 11.2269 16.2727 10.7305 15 10.7305C13.7273 10.7305 12.5297 11.2269 11.6279 12.1284C11.2846 12.4714 10.7282 12.4714 10.385 12.1282L7.05762 8.80045C6.71443 8.45721 6.71449 7.90074 7.05768 7.5575C9.18041 5.43471 12.0011 4.26564 15 4.26564C17.9989 4.26564 20.8196 5.43471 22.9423 7.55756C23.2855 7.90074 23.2856 8.45721 22.9424 8.80045Z" fill="#7084CB"/>
</svg>
