<svg width="12" height="20" viewBox="0 0 12 20" fill="none" xmlns="http://www.w3.org/2000/svg">
<path d="M10.7057 1.76471C10.7057 0.791686 9.91409 0 8.94104 0H3.05868C2.08562 0 1.29398 0.791686 1.29398 1.76471V2.35294H10.7057V1.76471Z" fill="#56666D"/>
<path d="M0.117514 16.4706H11.8822V8.23535H0.117514V16.4706ZM6.11751 9.64712L7.05869 10.353L5.99987 11.7648H8.35281L5.88222 15.0589L4.94104 14.353L5.99987 12.9412H3.64693L6.11751 9.64712Z" fill="#56666D"/>
<path d="M9.77246 4.70577H9.52928V3.5293H2.47046V4.70577H2.22724C1.06395 4.70577 0.117514 5.6522 0.117514 6.81554V7.05871H11.8822V6.81554C11.8822 5.6522 10.9358 4.70577 9.77246 4.70577Z" fill="#56666D"/>
<path d="M0.117514 17.8906C0.117514 19.054 1.06395 20.0004 2.22724 20.0004H9.77246C10.9358 20.0004 11.8822 19.054 11.8822 17.8906V17.6475H0.117514V17.8906Z" fill="#56666D"/>
</svg>
